# Blender 4.4.3
# www.blender.org
mtllib hello_world.mtl
o Text
v 8.538175 0.000000 -0.200186
v 8.538175 0.000000 -0.128492
v 8.405027 0.000000 0.000000
v 8.405027 0.000000 -0.200186
v 8.405027 0.000000 -0.291434
v 8.405027 0.000000 -0.651769
v 8.538175 0.000000 -0.651769
v 8.538175 0.000000 -0.291434
v 8.063315 0.000000 -0.651769
v 8.270019 0.000000 -0.324953
v 8.118250 0.000000 0.000000
v 7.536313 0.000000 0.000000
v 7.536313 0.000000 -0.651769
v 7.730913 0.000000 -0.095903
v 7.928306 0.000000 -0.095903
v 8.077282 0.000000 -0.324953
v 7.928306 0.000000 -0.555866
v 7.730913 0.000000 -0.555866
v 7.040968 0.000000 -0.095903
v 7.040968 0.000000 -0.651769
v 6.846369 0.000000 -0.651769
v 6.846369 0.000000 0.000000
v 7.396648 0.000000 0.000000
v 7.480447 0.000000 -0.095903
v 6.505587 0.000000 -0.304469
v 6.712291 0.000000 -0.304469
v 6.712291 0.000000 -0.651769
v 5.963687 0.000000 -0.651769
v 5.963687 0.000000 0.000000
v 6.161080 0.000000 0.000000
v 6.161080 0.000000 -0.555866
v 6.520484 0.000000 -0.555866
v 6.520484 0.000000 -0.400372
v 6.190876 0.000000 -0.400372
v 6.541900 0.000000 0.000000
v 6.771881 0.000000 0.000000
v 5.292365 0.000000 0.000000
v 5.066108 0.000000 -0.179702
v 5.066108 0.000000 -0.651769
v 5.805401 0.000000 -0.651769
v 5.805401 0.000000 0.000000
v 5.260708 0.000000 -0.555866
v 5.260708 0.000000 -0.221601
v 5.371509 0.000000 -0.095903
v 5.610801 0.000000 -0.095903
v 5.610801 0.000000 -0.555866
v 4.796090 0.000000 -0.651769
v 4.796090 0.000000 -0.282123
v 4.587524 0.000000 -0.413408
v 4.378958 0.000000 -0.282123
v 4.378958 0.000000 -0.651769
v 4.183427 0.000000 -0.651769
v 4.183427 0.000000 0.000000
v 4.545624 0.000000 -0.282123
v 4.991621 0.000000 0.000000
v 4.991621 0.000000 -0.651769
v 3.232775 0.000000 0.000000
v 3.006518 0.000000 -0.179702
v 3.006518 0.000000 -0.651769
v 3.745811 0.000000 -0.651769
v 3.745811 0.000000 0.000000
v 3.201118 0.000000 -0.555866
v 3.201118 0.000000 -0.221601
v 3.311918 0.000000 -0.095903
v 3.551211 0.000000 -0.095903
v 3.551211 0.000000 -0.555866
v 2.511173 0.000000 -0.095903
v 2.511173 0.000000 -0.651769
v 2.316574 0.000000 -0.651769
v 2.316574 0.000000 0.000000
v 2.866853 0.000000 0.000000
v 2.950652 0.000000 -0.095903
v 1.821229 0.000000 -0.095903
v 1.821229 0.000000 -0.651769
v 1.626629 0.000000 -0.651769
v 1.626629 0.000000 0.000000
v 2.176909 0.000000 0.000000
v 2.260708 0.000000 -0.095903
v 1.034451 0.000000 -0.095903
v 1.034451 0.000000 -0.277467
v 1.527002 0.000000 -0.277467
v 1.527002 0.000000 -0.373371
v 1.034451 0.000000 -0.373371
v 1.034451 0.000000 -0.555866
v 1.487896 0.000000 -0.555866
v 1.570764 0.000000 -0.651769
v 0.838920 0.000000 -0.651769
v 0.838920 0.000000 0.000000
v 1.568901 0.000000 0.000000
v 1.485102 0.000000 -0.095903
v 0.567970 0.000000 -0.651769
v 0.567970 0.000000 -0.374302
v 0.230912 0.000000 -0.374302
v 0.230912 0.000000 -0.651769
v 0.037244 0.000000 -0.651769
v 0.037244 0.000000 0.000000
v 0.230912 0.000000 0.000000
v 0.230912 0.000000 -0.278399
v 0.567970 0.000000 -0.278399
v 0.567970 0.000000 0.000000
v 0.764432 0.000000 0.000000
v 0.764432 0.000000 -0.651769
vn -0.0000 1.0000 -0.0000
vn -0.0000 -1.0000 -0.0000
vt 0.571429 0.000000
vt 0.857143 0.000000
vt 0.714286 0.000000
vt 1.000000 0.000000
vt 0.285714 0.000000
vt 0.000000 0.000000
vt 0.428571 0.000000
vt 0.142857 0.000000
vt 0.333333 0.000000
vt 0.444444 0.000000
vt 0.888889 0.000000
vt 0.111111 0.000000
vt 0.555556 0.000000
vt 0.777778 0.000000
vt 0.666667 0.000000
vt 0.222222 0.000000
vt 0.600000 0.000000
vt 0.200000 0.000000
vt 0.400000 0.000000
vt 0.800000 0.000000
vt 0.363636 0.000000
vt 0.545455 0.000000
vt 0.272727 0.000000
vt 0.181818 0.000000
vt 0.636364 0.000000
vt 0.090909 0.000000
vt 0.454545 0.000000
vt 0.727273 0.000000
vt 0.909091 0.000000
vt 0.818182 0.000000
s 0
usemtl none
f 5/1/1 7/2/1 6/3/1
f 5/1/1 8/4/1 7/2/1
f 3/5/1 1/6/1 4/7/1
f 3/5/1 2/8/1 1/6/1
f 12/9/1 18/4/1 13/10/1
f 18/4/1 9/6/1 13/10/1
f 18/4/1 17/11/1 9/6/1
f 17/11/1 10/12/1 9/6/1
f 12/9/1 14/13/1 18/4/1
f 16/14/1 10/12/1 17/11/1
f 15/15/1 10/12/1 16/14/1
f 15/15/1 11/16/1 10/12/1
f 12/9/1 15/15/1 14/13/1
f 12/9/1 11/16/1 15/15/1
f 22/17/1 20/18/1 21/19/1
f 22/17/1 19/6/1 20/18/1
f 22/17/1 24/4/1 19/6/1
f 22/17/1 23/20/1 24/4/1
f 29/21/1 31/22/1 28/23/1
f 31/22/1 27/24/1 28/23/1
f 31/22/1 32/25/1 27/24/1
f 32/25/1 26/26/1 27/24/1
f 29/21/1 30/27/1 31/22/1
f 33/28/1 26/26/1 32/25/1
f 35/29/1 25/6/1 34/30/1
f 25/6/1 33/28/1 34/30/1
f 25/6/1 26/26/1 33/28/1
f 35/29/1 36/4/1 25/6/1
f 38/12/1 42/13/1 39/16/1
f 42/13/1 40/9/1 39/16/1
f 42/13/1 46/4/1 40/9/1
f 46/4/1 41/10/1 40/9/1
f 38/12/1 43/15/1 42/13/1
f 45/11/1 41/10/1 46/4/1
f 38/12/1 44/14/1 43/15/1
f 37/6/1 44/14/1 38/12/1
f 37/6/1 45/11/1 44/14/1
f 37/6/1 41/10/1 45/11/1
f 53/15/1 51/10/1 52/13/1
f 53/15/1 50/9/1 51/10/1
f 48/12/1 56/4/1 47/6/1
f 48/12/1 55/11/1 56/4/1
f 50/9/1 48/12/1 49/16/1
f 53/15/1 54/14/1 50/9/1
f 54/14/2 48/12/2 50/9/2
f 55/11/1 48/12/1 54/14/1
f 58/12/1 62/13/1 59/16/1
f 62/13/1 60/9/1 59/16/1
f 62/13/1 66/4/1 60/9/1
f 66/4/1 61/10/1 60/9/1
f 58/12/1 63/15/1 62/13/1
f 65/11/1 61/10/1 66/4/1
f 58/12/1 64/14/1 63/15/1
f 57/6/1 64/14/1 58/12/1
f 57/6/1 65/11/1 64/14/1
f 57/6/1 61/10/1 65/11/1
f 70/17/1 68/18/1 69/19/1
f 70/17/1 67/6/1 68/18/1
f 70/17/1 72/4/1 67/6/1
f 70/17/1 71/20/1 72/4/1
f 76/17/1 74/18/1 75/19/1
f 76/17/1 73/6/1 74/18/1
f 76/17/1 78/4/1 73/6/1
f 76/17/1 77/20/1 78/4/1
f 88/30/1 84/27/1 87/28/1
f 84/27/1 86/25/1 87/28/1
f 84/27/1 85/22/1 86/25/1
f 88/30/1 83/21/1 84/27/1
f 88/30/1 80/26/1 83/21/1
f 80/26/1 82/23/1 83/21/1
f 80/26/1 81/24/1 82/23/1
f 88/30/1 79/6/1 80/26/1
f 88/30/1 90/4/1 79/6/1
f 88/30/1 89/29/1 90/4/1
f 96/27/1 94/23/1 95/21/1
f 96/27/1 93/24/1 94/23/1
f 92/26/1 102/4/1 91/6/1
f 92/26/1 101/29/1 102/4/1
f 96/27/1 98/25/1 93/24/1
f 98/25/1 92/26/1 93/24/1
f 98/25/1 99/28/1 92/26/1
f 99/28/1 101/29/1 92/26/1
f 96/27/1 97/22/1 98/25/1
f 100/30/1 101/29/1 99/28/1
