# Blender 4.4.3
# www.blender.org
mtllib photon_text.mtl
o Text
v -2.004373 0.000000 0.742955
v -2.004373 0.000000 0.062682
v -1.447522 0.000000 0.432945
v -1.447522 0.000000 0.062682
v -1.244412 0.000000 0.062682
v -1.244412 0.000000 0.742954
v -1.804179 0.000000 0.375608
v -1.804179 0.000000 0.742954
v -0.560253 0.000000 0.062682
v -1.166667 0.000000 0.062682
v -1.166667 0.000000 0.742954
v -0.395044 0.000000 0.742954
v -0.395044 0.000000 0.250243
v -0.598154 0.000000 0.642857
v -0.963557 0.000000 0.642857
v -0.963557 0.000000 0.162780
v -0.713800 0.000000 0.162780
v -0.598154 0.000000 0.293975
v -0.356171 0.000000 0.742954
v -0.269679 0.000000 0.642857
v -0.017979 0.000000 0.642857
v -0.017979 0.000000 0.062682
v 0.185131 0.000000 0.062682
v 0.185131 0.000000 0.642857
v 0.439747 0.000000 0.642857
v 0.526239 0.000000 0.742954
v 1.171525 0.000000 0.062682
v 0.565112 0.000000 0.062682
v 0.565112 0.000000 0.742954
v 1.336735 0.000000 0.742954
v 1.336735 0.000000 0.250243
v 1.133625 0.000000 0.642857
v 0.768221 0.000000 0.642857
v 0.768221 0.000000 0.162779
v 1.017978 0.000000 0.162779
v 1.133625 0.000000 0.293975
v 1.619534 0.000000 0.742954
v 1.414480 0.000000 0.742954
v 1.414480 0.000000 0.062682
v 1.619534 0.000000 0.062682
v 1.619534 0.000000 0.353255
v 1.971331 0.000000 0.353255
v 1.971331 0.000000 0.062682
v 2.173469 0.000000 0.062682
v 2.173469 0.000000 0.742954
v 1.971331 0.000000 0.742954
v 1.971331 0.000000 0.453353
v 1.619534 0.000000 0.453353
v 2.251215 0.000000 0.303693
v 2.800292 0.000000 0.303693
v 2.800292 0.000000 0.062682
v 3.004373 0.000000 0.062682
v 3.004373 0.000000 0.742954
v 2.251215 0.000000 0.742954
v 2.455296 0.000000 0.642857
v 2.802235 0.000000 0.642857
v 2.802235 0.000000 0.403790
v 2.455296 0.000000 0.403790
vn -0.0000 1.0000 -0.0000
vn -0.0000 -1.0000 -0.0000
vt 0.571429 0.000000
vt 0.285714 0.000000
vt 0.714286 0.000000
vt 0.857143 0.000000
vt 0.000000 0.000000
vt 1.000000 0.000000
vt 0.142857 0.000000
vt 0.428571 0.000000
vt 0.444444 0.000000
vt 0.555556 0.000000
vt 0.333333 0.000000
vt 0.222222 0.000000
vt 0.666667 0.000000
vt 0.111111 0.000000
vt 0.777778 0.000000
vt 0.888889 0.000000
vt 0.636364 0.000000
vt 0.818182 0.000000
vt 0.727273 0.000000
vt 0.909091 0.000000
vt 0.090909 0.000000
vt 0.181818 0.000000
vt 0.454545 0.000000
vt 0.363636 0.000000
vt 0.545455 0.000000
vt 0.272727 0.000000
s 0
usemtl none
f 5/1/1 3/2/1 6/3/1
f 3/2/1 7/4/1 6/3/1
f 7/4/1 1/5/1 8/6/1
f 7/4/1 2/7/1 1/5/1
f 5/1/1 4/8/1 3/2/1
f 2/7/1 7/4/1 3/2/1
f 13/9/1 14/10/1 12/11/1
f 14/10/1 11/12/1 12/11/1
f 14/10/1 15/13/1 11/12/1
f 15/13/1 10/14/1 11/12/1
f 13/9/1 18/6/1 14/10/1
f 16/15/1 10/14/1 15/13/1
f 13/9/1 17/16/1 18/6/1
f 9/5/1 17/16/1 13/9/1
f 9/5/1 16/15/1 17/16/1
f 9/5/1 10/14/1 16/15/1
f 25/4/1 19/5/1 26/6/1
f 25/4/1 20/7/1 19/5/1
f 24/3/2 20/7/2 25/4/2
f 23/1/1 21/2/1 24/3/1
f 21/2/1 20/7/1 24/3/1
f 23/1/1 22/8/1 21/2/1
f 31/9/1 32/10/1 30/11/1
f 32/10/1 29/12/1 30/11/1
f 32/10/1 33/13/1 29/12/1
f 33/13/1 28/14/1 29/12/1
f 31/9/1 36/6/1 32/10/1
f 34/15/1 28/14/1 33/13/1
f 31/9/1 35/16/1 36/6/1
f 27/5/1 35/16/1 31/9/1
f 27/5/1 34/15/1 35/16/1
f 27/5/1 28/14/1 34/15/1
f 44/17/1 46/18/1 45/19/1
f 44/17/1 47/20/1 46/18/1
f 48/6/1 38/21/1 37/5/1
f 48/6/1 39/22/1 38/21/1
f 44/17/1 42/23/1 47/20/1
f 42/23/1 48/6/1 47/20/1
f 42/23/1 41/24/1 48/6/1
f 41/24/1 39/22/1 48/6/1
f 44/17/1 43/25/1 42/23/1
f 40/26/1 39/22/1 41/24/1
f 52/11/1 56/15/1 53/9/1
f 56/15/1 54/10/1 53/9/1
f 56/15/1 55/13/1 54/10/1
f 55/13/1 49/5/1 54/10/1
f 52/11/1 57/16/1 56/15/1
f 58/6/1 49/5/1 55/13/1
f 52/11/1 50/14/1 57/16/1
f 50/14/1 58/6/1 57/16/1
f 50/14/1 49/5/1 58/6/1
f 52/11/1 51/12/1 50/14/1
